<svg xmlns="http://www.w3.org/2000/svg" width="1200" height="630" viewBox="0 0 1200 630" role="img" aria-label="TrialBridge">
  <defs>
    <linearGradient id="bg" x1="0" y1="0" x2="1" y2="1">
      <stop offset="0%" stop-color="#0f172a" />
      <stop offset="100%" stop-color="#0b3a35" />
    </linearGradient>
  </defs>
  <rect width="1200" height="630" fill="url(#bg)" />

  <rect x="90" y="90" width="1020" height="450" rx="24" fill="#ffffff" fill-opacity="0.07" />

  <rect x="130" y="150" width="88" height="88" rx="20" fill="#1a8a7a" />
  <path
    d="M174 221c-.8 0-1.5-.3-2.2-.8l-13.7-13.2c-2.2-2.1-4.1-4.3-4.1-7.8 0-4.7 3.7-8.4 8.4-8.4 2.5 0 4.9 1.1 6.6 3.1 1.7-2 4.1-3.1 6.6-3.1 4.7 0 8.4 3.7 8.4 8.4 0 3.5-1.9 5.7-4.1 7.8l-13.7 13.2c-.7.5-1.4.8-2.2.8z"
    fill="none"
    stroke="#ffffff"
    stroke-width="4"
    stroke-linecap="round"
    stroke-linejoin="round"
  />

  <text x="245" y="208" fill="#ffffff" font-family="Arial, sans-serif" font-size="66" font-weight="700">
    TrialBridge
  </text>
  <text x="130" y="300" fill="#d1d5db" font-family="Arial, sans-serif" font-size="40">
    AI-assisted clinical trial matching for patients and coordinators
  </text>
  <text x="130" y="360" fill="#9ca3af" font-family="Arial, sans-serif" font-size="30">
    Faster screening. Better outreach. Safer enrollment workflows.
  </text>
</svg>
